<svg width="129" height="48" viewBox="0 0 129 48" fill="none" xmlns="http://www.w3.org/2000/svg">
<circle cx="16" cy="24" r="16" fill="white"/>
<g clip-path="url(#clip0_11209_1412)">
<path d="M19.6678 26.6019C19.7212 26.5095 19.5976 26.3903 19.5009 26.4355C18.3778 26.9609 16.937 26.6082 16.2469 25.413L12.6194 19.13C12.3363 18.6396 11.8129 18.3374 11.2466 18.3374H9.38998C7.75395 18.3374 7.81476 19.3868 8.29944 20.2263L14.7336 31.3705C15.2183 32.21 16.43 32.21 16.9147 31.3705L19.6678 26.6019Z" fill="black"/>
<path d="M23.7813 18.646L21.409 18.6018C19.0624 18.5582 17.0002 20.1498 16.4479 22.4309C16.3295 22.9197 16.3866 23.4346 16.6091 23.8857L16.6973 24.0645C17.5392 25.7714 19.9592 25.8099 20.855 24.1307L23.7813 18.646Z" fill="black"/>
<path d="M14.125 18.3271L15.0158 18.3106C15.8969 18.2942 16.6712 18.8918 16.8786 19.7484C16.9231 19.9319 16.9017 20.1252 16.8181 20.2946L16.785 20.3618C16.4689 21.0027 15.5602 21.0172 15.2238 20.3866L14.125 18.3271Z" fill="black"/>
</g>
<path d="M56.9531 15.8672L50.9648 33H47.9883L42 15.8672H44.8828L48.4922 26.6016C48.6016 26.9141 48.7188 27.293 48.8438 27.7383C48.9766 28.1836 49.0977 28.6328 49.207 29.0859C49.3242 29.5391 49.4141 29.9414 49.4766 30.293C49.5391 29.9414 49.625 29.5391 49.7344 29.0859C49.8516 28.6328 49.9727 28.1836 50.0977 27.7383C50.2227 27.293 50.3398 26.9102 50.4492 26.5898L54.0703 15.8672H56.9531ZM61.6758 20.0273V33H58.9219V20.0273H61.6758ZM60.3164 15.0586C60.7383 15.0586 61.1016 15.1719 61.4062 15.3984C61.7188 15.625 61.875 16.0156 61.875 16.5703C61.875 17.1172 61.7188 17.5078 61.4062 17.7422C61.1016 17.9688 60.7383 18.082 60.3164 18.082C59.8789 18.082 59.5078 17.9688 59.2031 17.7422C58.9062 17.5078 58.7578 17.1172 58.7578 16.5703C58.7578 16.0156 58.9062 15.625 59.2031 15.3984C59.5078 15.1719 59.8789 15.0586 60.3164 15.0586ZM72.3867 19.7812C73.8477 19.7812 74.9844 20.1602 75.7969 20.918C76.6172 21.668 77.0273 22.875 77.0273 24.5391V33H74.2734V25.0547C74.2734 24.0469 74.0664 23.293 73.6523 22.793C73.2383 22.2852 72.5977 22.0312 71.7305 22.0312C70.4727 22.0312 69.5977 22.418 69.1055 23.1914C68.6211 23.9648 68.3789 25.0859 68.3789 26.5547V33H65.625V20.0273H67.7695L68.1562 21.7852H68.3086C68.5898 21.332 68.9375 20.9609 69.3516 20.6719C69.7734 20.375 70.2422 20.1523 70.7578 20.0039C71.2812 19.8555 71.8242 19.7812 72.3867 19.7812ZM85.7109 31.0078C86.0703 31.0078 86.4258 30.9766 86.7773 30.9141C87.1289 30.8438 87.4492 30.7617 87.7383 30.668V32.7539C87.4336 32.8867 87.0391 33 86.5547 33.0938C86.0703 33.1875 85.5664 33.2344 85.043 33.2344C84.3086 33.2344 83.6484 33.1133 83.0625 32.8711C82.4766 32.6211 82.0117 32.1953 81.668 31.5938C81.3242 30.9922 81.1523 30.1602 81.1523 29.0977V22.125H79.3828V20.8945L81.2812 19.9219L82.1836 17.1445H83.918V20.0273H87.6328V22.125H83.918V29.0625C83.918 29.7188 84.082 30.207 84.4102 30.5273C84.7383 30.8477 85.1719 31.0078 85.7109 31.0078ZM95.4609 19.7812C97.1016 19.7812 98.3398 20.1445 99.1758 20.8711C100.02 21.5977 100.441 22.7305 100.441 24.2695V33H98.4844L97.957 31.1602H97.8633C97.4961 31.6289 97.1172 32.0156 96.7266 32.3203C96.3359 32.625 95.8828 32.8516 95.3672 33C94.8594 33.1562 94.2383 33.2344 93.5039 33.2344C92.7305 33.2344 92.0391 33.0938 91.4297 32.8125C90.8203 32.5234 90.3398 32.0859 89.9883 31.5C89.6367 30.9141 89.4609 30.1719 89.4609 29.2734C89.4609 27.9375 89.957 26.9336 90.9492 26.2617C91.9492 25.5898 93.457 25.2188 95.4727 25.1484L97.7227 25.0664V24.3867C97.7227 23.4883 97.5117 22.8477 97.0898 22.4648C96.6758 22.082 96.0898 21.8906 95.332 21.8906C94.6836 21.8906 94.0547 21.9844 93.4453 22.1719C92.8359 22.3594 92.2422 22.5898 91.6641 22.8633L90.7734 20.918C91.4062 20.582 92.125 20.3086 92.9297 20.0977C93.7422 19.8867 94.5859 19.7812 95.4609 19.7812ZM97.7109 26.8008L96.0352 26.8594C94.6602 26.9062 93.6953 27.1406 93.1406 27.5625C92.5859 27.9844 92.3086 28.5625 92.3086 29.2969C92.3086 29.9375 92.5 30.4062 92.8828 30.7031C93.2656 30.9922 93.7695 31.1367 94.3945 31.1367C95.3477 31.1367 96.1367 30.8672 96.7617 30.3281C97.3945 29.7812 97.7109 28.9805 97.7109 27.9258V26.8008ZM108 38.7656C106.242 38.7656 104.895 38.4492 103.957 37.8164C103.02 37.1836 102.551 36.2969 102.551 35.1562C102.551 34.3594 102.801 33.6836 103.301 33.1289C103.801 32.582 104.516 32.2031 105.445 31.9922C105.094 31.8359 104.789 31.5938 104.531 31.2656C104.281 30.9297 104.156 30.5586 104.156 30.1523C104.156 29.668 104.293 29.2539 104.566 28.9102C104.84 28.5664 105.25 28.2344 105.797 27.9141C105.117 27.625 104.57 27.1562 104.156 26.5078C103.75 25.8516 103.547 25.082 103.547 24.1992C103.547 23.2617 103.746 22.4648 104.145 21.8086C104.543 21.1445 105.125 20.6406 105.891 20.2969C106.656 19.9453 107.582 19.7695 108.668 19.7695C108.902 19.7695 109.156 19.7852 109.43 19.8164C109.711 19.8398 109.969 19.8711 110.203 19.9102C110.445 19.9414 110.629 19.9766 110.754 20.0156H115.242V21.5508L113.039 21.9609C113.25 22.2578 113.418 22.5977 113.543 22.9805C113.668 23.3555 113.73 23.7656 113.73 24.2109C113.73 25.5547 113.266 26.6133 112.336 27.3867C111.414 28.1523 110.141 28.5352 108.516 28.5352C108.125 28.5195 107.746 28.4883 107.379 28.4414C107.098 28.6133 106.883 28.8047 106.734 29.0156C106.586 29.2188 106.512 29.4492 106.512 29.707C106.512 29.918 106.586 30.0898 106.734 30.2227C106.883 30.3477 107.102 30.4414 107.391 30.5039C107.688 30.5664 108.047 30.5977 108.469 30.5977H110.707C112.129 30.5977 113.215 30.8984 113.965 31.5C114.715 32.1016 115.09 32.9844 115.09 34.1484C115.09 35.625 114.48 36.7617 113.262 37.5586C112.043 38.3633 110.289 38.7656 108 38.7656ZM108.105 36.832C109.066 36.832 109.875 36.7383 110.531 36.5508C111.188 36.3633 111.684 36.0938 112.02 35.7422C112.355 35.3984 112.523 34.9883 112.523 34.5117C112.523 34.0898 112.418 33.7656 112.207 33.5391C111.996 33.3125 111.68 33.1562 111.258 33.0703C110.836 32.9844 110.312 32.9414 109.688 32.9414H107.648C107.141 32.9414 106.691 33.0195 106.301 33.1758C105.91 33.3398 105.605 33.5742 105.387 33.8789C105.176 34.1836 105.07 34.5508 105.07 34.9805C105.07 35.5742 105.332 36.0312 105.855 36.3516C106.387 36.6719 107.137 36.832 108.105 36.832ZM108.645 26.7305C109.449 26.7305 110.047 26.5117 110.438 26.0742C110.828 25.6289 111.023 25.0039 111.023 24.1992C111.023 23.3242 110.82 22.668 110.414 22.2305C110.016 21.793 109.422 21.5742 108.633 21.5742C107.859 21.5742 107.27 21.7969 106.863 22.2422C106.465 22.6875 106.266 23.3477 106.266 24.2227C106.266 25.0117 106.465 25.6289 106.863 26.0742C107.27 26.5117 107.863 26.7305 108.645 26.7305ZM122.777 19.7812C123.934 19.7812 124.926 20.0195 125.754 20.4961C126.582 20.9727 127.219 21.6484 127.664 22.5234C128.109 23.3984 128.332 24.4453 128.332 25.6641V27.1406H119.672C119.703 28.3984 120.039 29.3672 120.68 30.0469C121.328 30.7266 122.234 31.0664 123.398 31.0664C124.227 31.0664 124.969 30.9883 125.625 30.832C126.289 30.668 126.973 30.4297 127.676 30.1172V32.3555C127.027 32.6602 126.367 32.8828 125.695 33.0234C125.023 33.1641 124.219 33.2344 123.281 33.2344C122.008 33.2344 120.887 32.9883 119.918 32.4961C118.957 31.9961 118.203 31.2539 117.656 30.2695C117.117 29.2852 116.848 28.0625 116.848 26.6016C116.848 25.1484 117.094 23.9141 117.586 22.8984C118.078 21.8828 118.77 21.1094 119.66 20.5781C120.551 20.0469 121.59 19.7812 122.777 19.7812ZM122.777 21.8555C121.91 21.8555 121.207 22.1367 120.668 22.6992C120.137 23.2617 119.824 24.0859 119.73 25.1719H125.637C125.629 24.5234 125.52 23.9492 125.309 23.4492C125.105 22.9492 124.793 22.5586 124.371 22.2773C123.957 21.9961 123.426 21.8555 122.777 21.8555Z" fill="white"/>
<defs>
<clipPath id="clip0_11209_1412">
<rect width="16" height="16" fill="white" transform="translate(8 16)"/>
</clipPath>
</defs>
</svg>
